<svg id="visual" viewBox="0 0 900 600" width="900" height="600" xmlns="http://www.w3.org/2000/svg" xmlns:xlink="http://www.w3.org/1999/xlink" version="1.1"><path d="M0 460L25 453.8C50 447.7 100 435.3 150 429C200 422.7 250 422.3 300 436.2C350 450 400 478 450 489.3C500 500.7 550 495.3 600 483.2C650 471 700 452 750 447.8C800 443.7 850 454.3 875 459.7L900 465L900 601L875 601C850 601 800 601 750 601C700 601 650 601 600 601C550 601 500 601 450 601C400 601 350 601 300 601C250 601 200 601 150 601C100 601 50 601 25 601L0 601Z" fill="#3a3c92"></path><path d="M0 524L25 517.8C50 511.7 100 499.3 150 499.8C200 500.3 250 513.7 300 517.3C350 521 400 515 450 514.5C500 514 550 519 600 526.3C650 533.7 700 543.3 750 540.7C800 538 850 523 875 515.5L900 508L900 601L875 601C850 601 800 601 750 601C700 601 650 601 600 601C550 601 500 601 450 601C400 601 350 601 300 601C250 601 200 601 150 601C100 601 50 601 25 601L0 601Z" fill="#4e51c0"></path><path d="M0 574L25 569.2C50 564.3 100 554.7 150 554.2C200 553.7 250 562.3 300 569.3C350 576.3 400 581.7 450 577.5C500 573.3 550 559.7 600 549.5C650 539.3 700 532.7 750 538C800 543.3 850 560.7 875 569.3L900 578L900 601L875 601C850 601 800 601 750 601C700 601 650 601 600 601C550 601 500 601 450 601C400 601 350 601 300 601C250 601 200 601 150 601C100 601 50 601 25 601L0 601Z" fill="#6366f1"></path></svg>