<svg id="visual" viewBox="0 0 900 600" width="900" height="600" xmlns="http://www.w3.org/2000/svg" xmlns:xlink="http://www.w3.org/1999/xlink" version="1.1"><path d="M0 115L21.5 98C43 81 86 47 128.8 39.8C171.7 32.7 214.3 52.3 257.2 66.5C300 80.7 343 89.3 385.8 91.7C428.7 94 471.3 90 514.2 78.7C557 67.3 600 48.7 642.8 50.5C685.7 52.3 728.3 74.7 771.2 87.2C814 99.7 857 102.3 878.5 103.7L900 105L900 0L878.5 0C857 0 814 0 771.2 0C728.3 0 685.7 0 642.8 0C600 0 557 0 514.2 0C471.3 0 428.7 0 385.8 0C343 0 300 0 257.2 0C214.3 0 171.7 0 128.8 0C86 0 43 0 21.5 0L0 0Z" fill="#6366f1" stroke-linecap="round" stroke-linejoin="miter"></path></svg>