<svg id="visual" viewBox="0 0 900 600" width="900" height="600" xmlns="http://www.w3.org/2000/svg" xmlns:xlink="http://www.w3.org/1999/xlink" version="1.1"><path d="M0 473L25 466.7C50 460.3 100 447.7 150 442.2C200 436.7 250 438.3 300 446C350 453.7 400 467.3 450 467.3C500 467.3 550 453.7 600 453.5C650 453.3 700 466.7 750 468.5C800 470.3 850 460.7 875 455.8L900 451L900 601L875 601C850 601 800 601 750 601C700 601 650 601 600 601C550 601 500 601 450 601C400 601 350 601 300 601C250 601 200 601 150 601C100 601 50 601 25 601L0 601Z" fill="#1e1b4b"></path><path d="M0 525L25 522.7C50 520.3 100 515.7 150 513.7C200 511.7 250 512.3 300 514.2C350 516 400 519 450 513C500 507 550 492 600 487C650 482 700 487 750 495.2C800 503.3 850 514.7 875 520.3L900 526L900 601L875 601C850 601 800 601 750 601C700 601 650 601 600 601C550 601 500 601 450 601C400 601 350 601 300 601C250 601 200 601 150 601C100 601 50 601 25 601L0 601Z" fill="#34327f"></path><path d="M0 496L25 506.8C50 517.7 100 539.3 150 539.5C200 539.7 250 518.3 300 507C350 495.7 400 494.3 450 501C500 507.7 550 522.3 600 531.5C650 540.7 700 544.3 750 543.2C800 542 850 536 875 533L900 530L900 601L875 601C850 601 800 601 750 601C700 601 650 601 600 601C550 601 500 601 450 601C400 601 350 601 300 601C250 601 200 601 150 601C100 601 50 601 25 601L0 601Z" fill="#4c4bb6"></path><path d="M0 543L25 545.7C50 548.3 100 553.7 150 561C200 568.3 250 577.7 300 577.2C350 576.7 400 566.3 450 559.7C500 553 550 550 600 555.7C650 561.3 700 575.7 750 582.5C800 589.3 850 588.7 875 588.3L900 588L900 601L875 601C850 601 800 601 750 601C700 601 650 601 600 601C550 601 500 601 450 601C400 601 350 601 300 601C250 601 200 601 150 601C100 601 50 601 25 601L0 601Z" fill="#6366f1"></path></svg>